<svg fill="none" preserveAspectRatio="none" id="b" data-name="Layer 2" xmlns="http://www.w3.org/2000/svg" width="699.53" height="267.02" viewBox="0 0 699.53 267.02">
    <path d="M0,0v267.02c4.3-9.93,11.9-19.5,12.64-30.36.6-5.66-.37-11.57-.86-17.16-3.27-22.44,16.73-25.94,35.36-35.37,16.68-7.79,17.65-19.63,17.7-34.23-.77-19.78,8.49-30.79,33.18-30.82,16.68-.2,32.94,6.57,48.03,1.74,13.85-6.2,11.02-23.88,16.46-34.96,5.49-14.33,24.35-16.87,39.6-12.64,23.04,5.24,41.33,24.4,65.89,20.13,24.44-4.4,31.12-27.9,47.98-41.32,7.95-6.7,19.71-10.91,30.72-7.53,22.6,6.74,28.71,32.41,52.13,37.56,23.61,4.67,40.61-13.59,60.7-21.18,15.55-6.57,33.33-5.91,41.22,9.06,7.16,12.02,9.92,30.81,26.68,35.7,17.84,4.68,35.75-5.22,54.03-6.4,13.65-1.44,30.37,2.76,33.25,15.49,1.84,6.32,1.61,14.26,2.85,20.5,1.06,7.55,5.78,12.33,13.83,14.58,17.39,5.24,45.72,5.92,47.57,26.86,1.39,9.99-1.16,20.97,1.84,30.71,3.1,13.61,19.14,45.31,18.7,59.62h0V0H0Z"/>
</svg>