<svg width="36" height="58" viewBox="0 0 36 58" fill="none" xmlns="http://www.w3.org/2000/svg">
    <path d="M20.9951 54.9346H27.001V58H20.9941V54.9365H18.002V48.8457H20.9951V54.9346ZM29.9951 54.9365H27.002V48.8457H29.9951V54.9365ZM2.99316 0V3.04492H5.9873V6.08887H8.99707V9.1543H5.98438V6.09082H2.99316V48.8447H5.9873V51.8896H0V0H2.99316ZM17.999 48.8447H14.9863V42.7344H17.999V48.8447ZM26.999 48.8447H24.0059V42.7344H26.999V48.8447ZM8.99707 48.8438H5.98438V45.7783H8.99707V48.8438ZM14.9854 42.7354H11.9932V45.7793H9V42.7344H11.9922V39.6895H14.9854V42.7354ZM29.9951 30.5137H33.0068V33.5771H36.001V39.6885H24.0068V42.7334H20.9941V36.623H33.0068V33.5791H29.9941V30.5146H27.002V27.4697H29.9951V30.5137ZM20.9951 21.3574H24.0068V24.4209H26.999V27.4668H24.0059V24.4229H20.9941V21.3584H18.002V18.3125H20.9951V21.3574ZM17.999 18.3105H14.9863V15.2451H17.999V18.3105ZM11.9932 12.2012H14.9854V15.2461H11.9922V12.2021H9V9.15625H11.9932V12.2012Z" fill="#ffffff"/>
</svg>