<?xml version="1.0" encoding="UTF-8" standalone="no"?><!DOCTYPE svg PUBLIC "-//W3C//DTD SVG 1.1//EN" "http://www.w3.org/Graphics/SVG/1.1/DTD/svg11.dtd"><svg width="100%" height="100%" viewBox="0 0 762 402" version="1.1" xmlns="http://www.w3.org/2000/svg" xmlns:xlink="http://www.w3.org/1999/xlink" xml:space="preserve" xmlns:serif="http://www.serif.com/" style="fill-rule:evenodd;clip-rule:evenodd;stroke-linejoin:round;stroke-miterlimit:2;"><g id="Layer1"></g><rect id="Artboard1" x="0" y="0" width="761.969" height="401.281" style="fill:none;"/><g id="Logo"><path d="M160.713,8.554c-17.152,4.969 -24.886,8.611 -42.186,19.86c-16.813,10.935 -39.342,32.293 -52.868,50.121c-28.918,38.116 -54.246,94.255 -60.601,134.323c-2.574,16.239 -1.503,25.044 3.885,31.948c5.927,7.591 10.269,9.298 15.329,6.029c3.495,-2.259 4.865,-5.675 6.592,-16.443c6.114,-38.125 11.039,-54.283 26.199,-85.96c32.27,-67.427 84.78,-113.872 129.067,-114.167c21.888,-0.144 31.989,9.74 32.078,31.385c0.026,6.333 -2.906,26.653 -6.546,45.363c-11.026,56.659 -10.408,74.187 3.156,89.667c7.764,8.857 14.91,12.178 26.207,12.178c24.653,0 48.011,-15.329 113.143,-74.249c26.123,-23.632 50.037,-42.875 59.307,-47.724c6.498,-3.399 7.664,-2.112 9.445,10.42c5.093,35.831 17.985,58.301 40.155,69.984c9.257,4.878 12.243,8.255 33.071,8.255c24.179,0 35.768,-5.899 62.067,-17.384c45.538,-19.887 109.294,-63.902 127.264,-87.862c10.721,-14.297 17.514,-28.162 15.002,-30.625c-2.843,-2.789 -21.71,7.816 -46.774,26.295c-77.311,56.997 -138.158,84.952 -169.626,77.936c-17.413,-3.885 -26.8,-18.182 -32.338,-49.248c-4.972,-27.887 -12.021,-37.934 -27.676,-39.444c-17.594,-1.696 -39.537,12.788 -94.08,62.094c-40.949,37.019 -56.291,49.212 -71.839,57.096c-15.179,7.697 -18.528,7.964 -22.554,1.802c-4.288,-6.567 -2.698,-29.124 4.582,-64.955c7.313,-36.008 8.653,-50.959 5.823,-64.956c-3.962,-19.592 -14.126,-32.563 -31.447,-40.14c-12.31,-5.382 -38.128,-6.149 -53.837,-1.599Z" style="fill-rule:nonzero;"/><path d="M714.91,109.991c-27.081,9.708 -53.836,26.118 -83.313,51.101c-34.949,29.62 -51.826,42.723 -71.662,55.634c-23.476,15.279 -65.351,36.344 -87.903,44.217c-22.24,7.766 -61.071,15.937 -61.071,12.851c0,-0.293 1.797,-5.471 4.044,-11.648c5.391,-14.827 5.762,-40.188 0.795,-54.542c-6.778,-19.592 -25.424,-31.813 -44.201,-28.966c-21.03,3.187 -40.349,18.2 -50.911,39.556c-6.285,12.708 -6.974,15.525 -6.897,28.154c0.073,11.472 0.97,15.739 4.912,23.387c5.732,11.12 17.697,22.583 28.714,27.512c4.413,1.975 7.943,4.181 7.943,4.966c0,1.904 -20.828,19.107 -33.89,27.99c-43.774,29.768 -113.21,50.941 -136.442,41.604c-4.235,-1.702 -8.37,-3.051 -9.354,-3.051c-4.439,0 -1.412,6.355 7.06,14.827c17.206,17.205 42.716,19.38 80.135,6.837c42.54,-14.262 83.725,-39.02 112.083,-67.379l16.945,-16.945l13.593,-1.279c37.845,-3.56 78.016,-15.229 116.672,-33.892c44.058,-21.273 75.192,-42.369 122.145,-82.765c12.708,-10.933 28.378,-23.334 35.125,-27.793c23.828,-15.755 50.618,-27.073 64.072,-27.073c14.298,0 19.267,-13.769 8.297,-22.988c-7.402,-6.218 -20.124,-6.327 -36.891,-0.315Zm-328.675,102.378c4.057,6.205 5.408,24.182 2.641,35.126c-1.14,4.511 -4.272,12.885 -6.863,18.358c-4.515,9.53 -5.072,10.004 -10.59,9.005c-9.355,-1.694 -20.175,-8.318 -24.807,-15.184c-9.521,-14.119 -2.376,-35.246 15.805,-46.729c10.943,-6.911 19.537,-7.119 23.814,-0.576Z" style="fill-rule:nonzero;"/><path d="M260.694,248.633c-3.84,1.694 -14.843,8.99 -24.484,16.235c-21.639,16.264 -39.136,26.095 -58.445,32.841c-30.588,10.685 -53.236,12.869 -81.962,7.899c-22.46,-3.885 -28.506,-7.551 -41.514,-25.166c-12.372,-16.757 -14.176,-16.749 -16.242,0.07c-1.956,15.944 1.141,25.264 11.909,35.831c11.526,11.309 23.441,15.757 51.129,19.087c30.32,3.646 52.59,1.073 83.43,-9.642c26.837,-9.324 49.483,-22.319 78.131,-44.831c23.972,-18.838 27.218,-23.819 19.882,-30.516c-5.236,-4.778 -13.539,-5.465 -21.834,-1.808Z" style="fill-rule:nonzero;"/></g></svg>