<svg width="327" height="327" viewBox="0 0 327 327" fill="none" xmlns="http://www.w3.org/2000/svg">
<path d="M325.849 173.374L315.581 172.859L326.145 167.462L326.247 165.444L312.264 164.742L312.163 166.76L322.07 167.257L311.866 172.672L311.765 174.69L325.747 175.392L325.849 173.374Z" fill="black"/>
<path d="M310.345 184.475C309.776 188.232 312.266 190.49 316.716 191.164C321.165 191.837 324.212 190.417 324.78 186.66C325.352 182.883 322.862 180.625 318.412 179.951C313.963 179.278 310.916 180.698 310.345 184.475ZM312.144 184.747C312.635 181.504 316.311 181.676 318.11 181.949C319.91 182.221 323.472 183.144 322.981 186.387C322.49 189.63 318.817 189.439 317.018 189.166C315.218 188.894 311.653 187.991 312.144 184.747Z" fill="black"/>
<path d="M307.432 199.43C306.665 202.393 308.322 204.929 311.13 205.656L319.978 207.946L320.484 205.99L311.984 203.79C309.893 203.249 308.81 201.688 309.271 199.906C309.737 198.106 311.442 197.266 313.533 197.807L322.033 200.007L322.539 198.052L313.691 195.762C310.883 195.035 308.203 196.449 307.432 199.43Z" fill="black"/>
<path d="M311.005 222.178C313.577 223.121 315.229 222.044 316.489 218.608L318.086 214.251L304.942 209.432L304.247 211.328L309.842 213.38L308.947 215.821L302.374 216.436L301.589 218.576L308.371 217.974C308.08 220.104 308.92 221.414 311.005 222.178ZM315.607 215.494L314.712 217.935C313.934 220.057 312.996 220.756 311.606 220.247C310.217 219.737 309.953 218.597 310.731 216.475L311.626 214.034L315.607 215.494Z" fill="black"/>
<path d="M299.827 222.87L295.863 231.106L297.575 231.93L300.663 225.514L304.502 227.362L301.509 233.579L303.221 234.403L306.214 228.186L309.854 229.938L306.766 236.353L308.478 237.177L312.442 228.941L299.827 222.87Z" fill="black"/>
<path d="M293.476 235.714L291.485 238.974C289.379 242.422 290.344 246.175 293.912 248.354C297.513 250.554 301.327 249.719 303.433 246.271L305.424 243.011L293.476 235.714ZM294.045 238.428L302.749 243.745L301.77 245.349C300.32 247.722 297.593 248.235 294.964 246.63C292.37 245.046 291.616 242.405 293.065 240.033L294.045 238.428Z" fill="black"/>
<path d="M285.353 248.671L283.038 251.711C280.591 254.925 281.167 258.757 284.492 261.289C287.85 263.846 291.729 263.406 294.177 260.192L296.491 257.153L285.353 248.671ZM285.64 251.429L293.756 257.609L292.617 259.105C290.932 261.316 288.167 261.548 285.716 259.682C283.298 257.841 282.817 255.137 284.501 252.925L285.64 251.429Z" fill="black"/>
<path d="M275.763 260.782L274.42 262.291L284.878 271.598L286.221 270.09L275.763 260.782Z" fill="black"/>
<path d="M274.822 281.946L267.687 274.547L279.084 277.837L280.538 276.435L270.82 266.357L269.366 267.759L276.252 274.9L265.104 271.869L263.65 273.271L273.368 283.349L274.822 281.946Z" fill="black"/>
<path d="M259.692 276.815L252.523 282.484L253.701 283.974L259.286 279.559L261.928 282.9L256.516 287.18L257.694 288.67L263.107 284.391L265.612 287.56L260.027 291.976L261.206 293.466L268.375 287.797L259.692 276.815Z" fill="black"/>
<path d="M235.333 293.62L233.538 294.671L245.084 304.133L246.896 303.072L244.29 288.373L242.495 289.425L243.095 292.666L237.866 295.729L235.333 293.62ZM243.469 294.649L244.728 301.468L239.414 297.024L243.469 294.649Z" fill="black"/>
<path d="M231.304 295.849L223.007 299.729L223.811 301.45L229.863 298.621L228.317 311.133L228.919 312.42L237.09 308.599L236.285 306.878L230.397 309.631L231.931 297.19L231.304 295.849Z" fill="black"/>
<path d="M218.252 301.792L216.348 302.466L218.403 308.273L212.841 310.241L210.786 304.435L208.882 305.108L213.553 318.306L215.457 317.632L213.475 312.033L219.037 310.064L221.019 315.664L222.923 314.99L218.252 301.792Z" fill="black"/>
<path d="M195.366 308.737L193.344 309.227L201.68 321.611L203.72 321.116L205.453 306.289L203.432 306.78L203.074 310.056L197.185 311.485L195.366 308.737ZM202.861 312.063L202.105 318.956L198.294 313.171L202.861 312.063Z" fill="black"/>
<path d="M181.532 321.284C181.922 323.996 183.653 324.94 187.276 324.42L191.869 323.761L189.881 309.903L187.881 310.19L188.728 316.09L186.154 316.459L182.496 310.963L180.239 311.287L183.985 316.972C181.971 317.726 181.217 319.087 181.532 321.284ZM189.6 322.167L187.026 322.537C184.789 322.858 183.728 322.363 183.518 320.898C183.307 319.433 184.187 318.661 186.424 318.34L188.997 317.97L189.6 322.167Z" fill="black"/>
<path d="M155.839 312.139C156.798 312.191 157.687 312.419 158.506 312.824C159.312 313.228 160.018 313.76 160.623 314.421C161.228 315.094 161.687 315.86 162.001 316.718C162.315 317.577 162.446 318.485 162.394 319.444C162.343 320.402 162.115 321.284 161.711 322.09C161.306 322.91 160.773 323.622 160.113 324.227C159.439 324.832 158.673 325.291 157.815 325.605C156.957 325.919 156.048 326.051 155.09 325.999C154.131 325.947 153.242 325.719 152.423 325.314C151.604 324.909 150.898 324.37 150.307 323.697C149.702 323.037 149.242 322.278 148.928 321.419C148.614 320.561 148.483 319.653 148.535 318.694C148.587 317.736 148.815 316.847 149.22 316.027C149.625 315.208 150.164 314.496 150.837 313.891C151.497 313.3 152.256 312.846 153.114 312.532C153.972 312.218 154.881 312.087 155.839 312.139ZM155.689 315.295C154.291 315.22 153.18 315.874 152.358 317.258L153.036 317.676C153.357 317.172 153.738 316.799 154.178 316.556C154.605 316.325 155.091 316.225 155.637 316.254C156.196 316.284 156.682 316.437 157.094 316.713C157.493 317.002 157.817 317.413 158.069 317.948L158.768 317.605C158.1 316.14 157.073 315.37 155.689 315.295ZM158.072 319.751C157.805 319.736 157.588 319.811 157.419 319.976C157.236 320.139 157.138 320.348 157.124 320.601C157.111 320.854 157.186 321.071 157.349 321.254C157.5 321.436 157.708 321.534 157.974 321.548C158.227 321.562 158.445 321.487 158.628 321.323C158.81 321.159 158.908 320.951 158.922 320.698C158.935 320.445 158.86 320.227 158.697 320.045C158.533 319.862 158.325 319.764 158.072 319.751ZM152.799 319.466C152.546 319.452 152.329 319.52 152.147 319.671C151.965 319.834 151.866 320.049 151.852 320.316C151.838 320.569 151.913 320.786 152.077 320.969C152.241 321.151 152.449 321.249 152.702 321.263C152.955 321.277 153.173 321.202 153.355 321.038C153.538 320.874 153.636 320.666 153.649 320.413C153.663 320.16 153.588 319.942 153.424 319.76C153.261 319.577 153.052 319.479 152.799 319.466Z" fill="black"/>
<path d="M131.599 308.999L129.646 308.486L127.337 317.268L126.04 308.986L124.783 308.655L119.6 315.234L121.908 306.452L119.955 305.939L116.396 319.479L118.311 319.982L124.679 311.647L126.106 322.031L128.04 322.539L131.599 308.999Z" fill="black"/>
<path d="M106.934 301.271L104.99 300.533L104.865 315.461L106.829 316.206L116.639 304.954L114.694 304.216L112.547 306.717L106.881 304.567L106.934 301.271ZM111.237 308.252L106.717 313.511L106.843 306.585L111.237 308.252Z" fill="black"/>
<path d="M94.8283 295.666L92.5699 294.548L93.9321 304.283L86.9499 307.387L89.0829 308.443L96.5295 305.167L93.761 310.759L95.5713 311.655L101.783 299.109L99.9724 298.213L97.6919 302.819L95.8793 303.595L94.8283 295.666Z" fill="black"/>
<path d="M89.0841 292.614L81.3191 287.793L80.3168 289.407L86.3657 293.163L84.1186 296.782L78.2566 293.142L77.2544 294.756L83.1164 298.396L80.9853 301.828L74.9364 298.072L73.9342 299.687L81.6992 304.508L89.0841 292.614Z" fill="black"/>
<path d="M73.8527 282.108C71.4022 280.242 68.7334 280.347 67.2309 282.32C64.1413 286.377 71.2557 289.909 69.3898 292.36C68.7476 293.203 67.4954 293.23 66.3338 292.346C64.8699 291.231 64.5051 289.696 65.3532 288.582L63.5379 287.929C62.2052 289.679 62.8437 292.076 65.1828 293.857C67.315 295.481 69.6278 295.382 70.9121 293.695C74.0866 289.526 66.7419 286.296 68.8744 283.496C69.662 282.462 71.2059 282.481 72.7016 283.62C74.2928 284.831 74.5343 286.825 73.3697 288.553L75.2327 289.242C76.9653 286.967 76.4463 284.083 73.8527 282.108Z" fill="black"/>
<path d="M59.0169 269.787L57.5938 268.353L49.0068 276.878L46.0055 273.855L44.6571 275.193L52.0688 282.659L53.4171 281.321L50.4299 278.312L59.0169 269.787Z" fill="black"/>
<path d="M51.6092 262.155L50.3277 260.594L45.566 264.502L41.823 259.941L46.5847 256.033L45.3032 254.472L34.4812 263.353L35.7626 264.915L40.3543 261.146L44.0973 265.707L39.5056 269.475L40.7871 271.037L51.6092 262.155Z" fill="black"/>
<path d="M42.0598 250.054L40.9016 248.399L29.4314 256.426L30.5897 258.081L42.0598 250.054Z" fill="black"/>
<path d="M21.6893 244.25L30.5403 239.021L24.7004 249.347L25.7278 251.086L37.7816 243.965L36.7542 242.226L28.2132 247.272L33.7432 237.129L32.7157 235.39L20.6619 242.511L21.6893 244.25Z" fill="black"/>
<path d="M28.2202 225.935C27.5256 224.405 26.1902 223.496 24.8644 223.527L26.5215 222.774L25.6698 220.899L18.6406 224.091L21.758 230.956L23.488 230.17L21.2223 225.181C23.5069 224.165 25.4235 224.371 26.4489 226.629C27.5322 229.015 26.3528 231.11 23.2389 232.524C20.1431 233.93 17.8078 233.431 16.7245 231.045C15.8149 229.042 16.7192 227.599 17.7789 226.547L16.3891 225.179C14.4071 226.957 13.8038 229.208 14.9945 231.831C16.4003 234.926 19.9767 236.224 24.074 234.363C28.1714 232.503 29.7087 229.213 28.2202 225.935Z" fill="black"/>
<path d="M22.5849 211.845C21.6011 208.926 19.3321 207.517 16.9821 208.31C12.1492 209.939 16.0622 216.851 13.1436 217.835C12.1391 218.173 11.0869 217.494 10.6206 216.11C10.0328 214.367 10.5907 212.891 11.9174 212.444L10.78 210.886C8.69526 211.588 7.88097 213.931 8.82009 216.717C9.67616 219.257 11.6472 220.471 13.6561 219.794C18.6216 218.12 14.3486 211.329 17.6842 210.205C18.9161 209.789 20.1839 210.671 20.7845 212.452C21.4233 214.347 20.506 216.134 18.5733 216.912L19.7298 218.527C22.44 217.614 23.6263 214.934 22.5849 211.845Z" fill="black"/>
<path d="M15.4419 183.824C15.5673 184.776 15.5065 185.692 15.2593 186.572C15.0103 187.438 14.617 188.23 14.0793 188.946C13.5284 189.664 12.8601 190.257 12.0743 190.723C11.2885 191.19 10.4197 191.486 9.46795 191.611C8.51617 191.737 7.60698 191.675 6.74037 191.426C5.86054 191.179 5.06244 190.786 4.34607 190.249C3.62795 189.698 3.03557 189.029 2.56893 188.244C2.10229 187.458 1.80627 186.589 1.68087 185.637C1.55547 184.686 1.61637 183.77 1.86356 182.89C2.11075 182.01 2.51068 181.218 3.06333 180.513C3.60103 179.796 4.26277 179.205 5.04855 178.738C5.83433 178.272 6.7031 177.976 7.65488 177.85C8.60665 177.725 9.52245 177.786 10.4023 178.033C11.2821 178.28 12.0811 178.679 12.7992 179.23C13.5024 179.77 14.0872 180.432 14.5539 181.218C15.0205 182.004 15.3165 182.872 15.4419 183.824ZM12.3116 184.257C12.1288 182.869 11.2813 181.898 9.76936 181.344L9.48405 182.088C10.0379 182.31 10.4749 182.616 10.795 183.004C11.1002 183.381 11.2885 183.84 11.3599 184.382C11.433 184.937 11.3719 185.443 11.1764 185.899C10.9661 186.344 10.6214 186.739 10.1424 187.084L10.608 187.709C11.9249 186.782 12.4928 185.632 12.3116 184.257ZM8.37089 187.419C8.33605 187.154 8.22226 186.954 8.02951 186.818C7.83502 186.669 7.6122 186.611 7.36104 186.644C7.10987 186.677 6.90969 186.791 6.76048 186.985C6.60953 187.167 6.55148 187.389 6.58631 187.654C6.6194 187.905 6.73319 188.105 6.92768 188.254C7.12217 188.404 7.345 188.462 7.59616 188.429C7.84732 188.395 8.04751 188.282 8.19671 188.087C8.34592 187.893 8.40398 187.67 8.37089 187.419ZM7.68119 182.184C7.6481 181.933 7.54092 181.732 7.35965 181.581C7.16516 181.432 6.93572 181.374 6.67134 181.409C6.42018 181.442 6.21999 181.556 6.07078 181.751C5.92158 181.945 5.86352 182.168 5.89661 182.419C5.9297 182.67 6.04349 182.87 6.23798 183.02C6.43247 183.169 6.6553 183.227 6.90646 183.194C7.15763 183.161 7.35781 183.047 7.50702 182.852C7.65622 182.658 7.71428 182.435 7.68119 182.184Z" fill="black"/>
<path d="M0.675913 149.881L10.9311 150.594L0.265157 155.787L0.125 157.802L14.0913 158.773L14.2314 156.758L4.33532 156.07L14.6422 150.853L14.7823 148.837L0.816069 147.866L0.675913 149.881Z" fill="black"/>
<path d="M16.4641 138.623C17.1189 134.88 14.6813 132.566 10.2486 131.79C5.81587 131.015 2.73725 132.365 2.08248 136.108C1.42426 139.871 3.86188 142.185 8.29458 142.961C12.7273 143.736 15.8059 142.386 16.4641 138.623ZM14.6713 138.31C14.1062 141.541 10.4354 141.284 8.64264 140.971C6.84986 140.657 3.31008 139.652 3.87526 136.421C4.44043 133.19 8.10772 133.466 9.9005 133.78C11.6933 134.094 15.2365 135.079 14.6713 138.31Z" fill="black"/>
<path d="M19.6882 123.827C20.5221 120.883 18.9228 118.31 16.1326 117.519L7.33853 115.028L6.78804 116.972L15.2357 119.365C17.314 119.953 18.3615 121.539 17.8601 123.309C17.3532 125.099 15.6298 125.899 13.5515 125.311L5.10387 122.918L4.55338 124.862L13.3474 127.352C16.1377 128.143 18.8488 126.79 19.6882 123.827Z" fill="black"/>
<path d="M16.5207 101.255C13.97 100.254 12.2944 101.294 10.9574 104.701L9.26236 109.02L22.2948 114.135L23.0327 112.254L17.4846 110.077L18.4344 107.657L25.02 107.19L25.8529 105.068L19.0592 105.517C19.3982 103.394 18.5872 102.066 16.5207 101.255ZM11.769 107.834L12.7188 105.414C13.5444 103.31 14.4981 102.631 15.8758 103.172C17.2536 103.713 17.4913 104.859 16.6657 106.963L15.7159 109.383L11.769 107.834Z" fill="black"/>
<path d="M27.6628 100.833L31.8089 92.6878L30.1156 91.8259L26.8859 98.1713L23.0894 96.2389L26.2193 90.0896L24.526 89.2277L21.3961 95.377L17.7956 93.5444L21.0253 87.1991L19.3321 86.3372L15.186 94.4828L27.6628 100.833Z" fill="black"/>
<path d="M34.2551 88.1336L36.3176 84.9182C38.4988 81.5177 37.6166 77.7441 34.0982 75.4872C30.5461 73.2088 26.7147 73.9589 24.5334 77.3595L22.471 80.5749L34.2551 88.1336ZM33.7465 85.4075L25.1609 79.9004L26.1759 78.318C27.6769 75.978 30.415 75.5246 33.0076 77.1875C35.5664 78.8288 36.2624 81.4851 34.7615 83.8251L33.7465 85.4075Z" fill="black"/>
<path d="M42.6413 75.3252L45.0214 72.3373C47.5386 69.1773 47.0465 65.3334 43.777 62.7289C40.4763 60.0996 36.5883 60.4543 34.0711 63.6143L31.691 66.6022L42.6413 75.3252ZM42.4138 72.5613L34.4357 66.206L35.6071 64.7355C37.3392 62.5611 40.1094 62.3898 42.5184 64.3089C44.8962 66.203 45.3173 68.9165 43.5851 71.0909L42.4138 72.5613Z" fill="black"/>
<path d="M52.4688 63.4124L53.8443 61.9331L43.5917 52.3998L42.2162 53.8791L52.4688 63.4124Z" fill="black"/>
<path d="M53.848 42.2581L60.8208 49.8118L49.498 46.2735L48.0137 47.6437L57.5097 57.9308L58.994 56.5607L52.2654 49.2715L63.344 52.5452L64.8283 51.1751L55.3323 40.8879L53.848 42.2581Z" fill="black"/>
<path d="M68.7674 47.7459L76.0593 42.2353L74.9138 40.7195L69.2334 45.0122L66.665 41.6135L72.1699 37.4535L71.0244 35.9376L65.5195 40.0977L63.0837 36.8745L68.7641 32.5818L67.6186 31.066L60.3266 36.5766L68.7674 47.7459Z" fill="black"/>
<path d="M93.1672 31.5867L94.9847 30.5753L83.6509 20.8605L81.8159 21.8816L84.0969 36.6339L85.9145 35.6225L85.3858 32.3691L90.6812 29.4224L93.1672 31.5867ZM85.0561 30.3782L83.948 23.5333L89.1631 28.0928L85.0561 30.3782Z" fill="black"/>
<path d="M97.1017 29.4288L105.484 25.735L104.718 23.9963L98.605 26.6901L100.429 14.2151L99.8567 12.9157L91.6026 16.553L92.3688 18.2917L98.3168 15.6706L96.5049 28.0745L97.1017 29.4288Z" fill="black"/>
<path d="M110.484 23.6164L112.402 22.9856L110.479 17.1337L116.084 15.2912L118.007 21.1432L119.926 20.5124L115.555 7.21251L113.636 7.84331L115.491 13.4863L109.886 15.3287L108.031 9.68574L106.112 10.3165L110.484 23.6164Z" fill="black"/>
<path d="M133.133 17.1922L135.163 16.7403L127.065 4.20016L125.015 4.65641L123 19.4474L125.031 18.9955L125.451 15.7262L131.366 14.4096L133.133 17.1922ZM125.701 13.7239L126.589 6.84687L130.289 12.7027L125.701 13.7239Z" fill="black"/>
<path d="M148.246 4.74409C147.92 2.02363 146.21 1.04036 142.576 1.47659L137.969 2.02963L139.638 15.9298L141.644 15.6891L140.933 9.77156L143.515 9.46166L147.045 15.0407L149.309 14.7689L145.695 8.99849C147.725 8.29147 148.511 6.94827 148.246 4.74409ZM140.201 3.67533L142.783 3.36543C145.027 3.09606 146.076 3.6147 146.252 5.08415C146.429 6.55359 145.532 7.30584 143.288 7.57521L140.707 7.8851L140.201 3.67533Z" fill="black"/>
<path d="M173.759 14.4401C172.801 14.3661 171.918 14.1173 171.108 13.6936C170.312 13.271 169.619 12.7226 169.029 12.0485C168.44 11.3611 167.999 10.5847 167.704 9.71949C167.41 8.85424 167.3 7.94304 167.374 6.9859C167.448 6.02875 167.696 5.15195 168.119 4.35549C168.543 3.54573 169.092 2.84595 169.766 2.25615C170.453 1.66738 171.229 1.2259 172.095 0.931709C172.96 0.637519 173.871 0.527417 174.828 0.601404C175.785 0.675391 176.669 0.924218 177.479 1.34789C178.288 1.77155 178.981 2.32658 179.556 3.01298C180.146 3.68711 180.588 4.45679 180.882 5.32204C181.177 6.18729 181.287 7.09848 181.213 8.05563C181.139 9.01277 180.89 9.89622 180.466 10.706C180.043 11.5157 179.487 12.215 178.8 12.8038C178.127 13.3803 177.357 13.8156 176.492 14.1098C175.627 14.404 174.716 14.5141 173.759 14.4401ZM173.982 11.288C175.378 11.3959 176.503 10.7674 177.357 9.40251L176.689 8.96969C176.356 9.46554 175.967 9.82995 175.521 10.0629C175.09 10.2837 174.601 10.373 174.056 10.3308C173.498 10.2877 173.016 10.1234 172.61 9.8379C172.218 9.54017 171.903 9.12129 171.664 8.58126L170.957 8.90772C171.591 10.3877 172.6 11.1811 173.982 11.288ZM171.703 6.7789C171.969 6.79946 172.188 6.72949 172.361 6.569C172.547 6.40954 172.65 6.20352 172.67 5.95094C172.689 5.69836 172.619 5.47899 172.46 5.29281C172.314 5.10766 172.107 5.00481 171.842 4.98426C171.589 4.96473 171.37 5.0347 171.183 5.19416C170.997 5.35362 170.894 5.55964 170.875 5.81222C170.855 6.0648 170.925 6.28418 171.085 6.47035C171.244 6.65653 171.45 6.75938 171.703 6.7789ZM176.967 7.18583C177.22 7.20536 177.439 7.14204 177.624 6.99587C177.81 6.83641 177.913 6.62375 177.934 6.35787C177.953 6.10529 177.883 5.88591 177.724 5.69974C177.565 5.51356 177.358 5.41071 177.106 5.39119C176.853 5.37166 176.634 5.44163 176.448 5.60109C176.262 5.76055 176.159 5.96657 176.139 6.21915C176.12 6.47173 176.19 6.6911 176.349 6.87728C176.509 7.06346 176.715 7.16631 176.967 7.18583Z" fill="black"/>
<path d="M197.237 17.9152L199.179 18.473L201.686 9.74613L202.795 18.0554L204.044 18.4144L209.375 11.9554L206.868 20.6823L208.809 21.2402L212.675 7.78461L210.772 7.2378L204.216 15.4257L203.026 5.01194L201.104 4.45961L197.237 17.9152Z" fill="black"/>
<path d="M221.546 26.0423L223.474 26.8239L223.934 11.9034L221.988 11.1143L211.927 22.1422L213.855 22.9237L216.057 20.4717L221.673 22.7487L221.546 26.0423ZM217.401 18.9664L222.038 13.8109L221.757 20.7324L217.401 18.9664Z" fill="black"/>
<path d="M233.698 31.9045L235.931 33.0725L234.785 23.3096L241.835 20.3611L239.726 19.258L232.208 22.3679L235.1 16.8386L233.31 15.9024L226.822 28.3079L228.612 29.2441L230.994 24.6895L232.823 23.9536L233.698 31.9045Z" fill="black"/>
<path d="M239.404 35.0155L247.061 40.0065L248.099 38.4148L242.134 34.5268L244.46 30.9581L250.241 34.7259L251.278 33.1342L245.498 29.3663L247.704 25.9819L253.669 29.8699L254.706 28.2782L247.049 23.2871L239.404 35.0155Z" fill="black"/>
<path d="M254.375 45.7402C256.784 47.6593 259.455 47.6131 261 45.6734C264.177 41.6843 257.142 37.9976 259.061 35.5885C259.721 34.7594 260.974 34.76 262.116 35.6696C263.555 36.8161 263.886 38.3584 263.014 39.4534L264.815 40.1462C266.185 38.4255 265.599 36.0154 263.3 34.1835C261.204 32.5137 258.889 32.5622 257.568 34.2204C254.303 38.319 261.576 41.7085 259.382 44.4617C258.572 45.4785 257.029 45.4255 255.559 44.2541C253.995 43.008 253.797 41.0093 254.999 39.3077L253.151 38.5775C251.369 40.8145 251.825 43.709 254.375 45.7402Z" fill="black"/>
<path d="M269.324 58.6205L270.716 60.0847L279.487 51.7491L282.421 54.837L283.799 53.5281L276.551 45.9026L275.174 47.2115L278.095 50.2849L269.324 58.6205Z" fill="black"/>
<path d="M276.53 66.3064L277.777 67.8955L282.623 64.0925L286.265 68.734L281.419 72.5369L282.666 74.126L293.68 65.483L292.433 63.8939L287.76 67.561L284.117 62.9196L288.79 59.2525L287.543 57.6634L276.53 66.3064Z" fill="black"/>
<path d="M285.901 78.6766L287.022 80.3566L298.666 72.5831L297.544 70.9031L285.901 78.6766Z" fill="black"/>
<path d="M306.231 85.0269L297.266 90.0586L303.333 79.8645L302.344 78.103L290.136 84.9555L291.125 86.717L299.775 81.8615L294.022 91.8794L295.011 93.6409L307.219 86.7884L306.231 85.0269Z" fill="black"/>
<path d="M299.436 103.445C300.096 104.989 301.411 105.928 302.737 105.927L301.063 106.642L301.873 108.536L308.972 105.503L306.009 98.5693L304.261 99.3159L306.415 104.355C304.108 105.319 302.197 105.07 301.222 102.79C300.192 100.381 301.418 98.3125 304.563 96.9685C307.69 95.6323 310.013 96.1835 311.043 98.5927C311.907 100.616 310.971 102.038 309.888 103.066L311.247 104.465C313.268 102.731 313.922 100.494 312.79 97.8461C311.454 94.7196 307.907 93.3426 303.769 95.111C299.631 96.8794 298.021 100.134 299.436 103.445Z" fill="black"/>
<path d="M304.719 117.534C305.636 120.474 307.873 121.934 310.24 121.195C315.109 119.676 311.353 112.677 314.293 111.76C315.305 111.444 316.342 112.147 316.777 113.541C317.325 115.297 316.734 116.76 315.397 117.177L316.499 118.76C318.599 118.105 319.466 115.781 318.59 112.975C317.792 110.416 315.849 109.158 313.825 109.79C308.823 111.351 312.941 118.236 309.581 119.285C308.34 119.672 307.093 118.763 306.533 116.968C305.937 115.059 306.894 113.293 308.844 112.559L307.724 110.918C304.994 111.77 303.748 114.422 304.719 117.534Z" fill="black"/>
<path d="M311.278 145.85C311.175 144.896 311.256 143.981 311.524 143.108C311.793 142.247 312.204 141.465 312.758 140.761C313.326 140.056 314.007 139.479 314.804 139.03C315.6 138.582 316.475 138.306 317.43 138.203C318.384 138.099 319.292 138.182 320.152 138.451C321.026 138.718 321.815 139.129 322.519 139.683C323.224 140.25 323.801 140.932 324.249 141.729C324.698 142.525 324.974 143.4 325.077 144.355C325.181 145.309 325.099 146.223 324.831 147.097C324.564 147.971 324.146 148.754 323.577 149.446C323.023 150.15 322.348 150.726 321.551 151.174C320.755 151.623 319.88 151.899 318.925 152.002C317.971 152.105 317.057 152.023 316.183 151.756C315.309 151.489 314.519 151.071 313.814 150.504C313.124 149.948 312.554 149.272 312.106 148.476C311.657 147.68 311.381 146.804 311.278 145.85ZM314.417 145.49C314.568 146.882 315.393 147.872 316.892 148.46L317.194 147.724C316.646 147.488 316.216 147.172 315.905 146.777C315.608 146.393 315.431 145.93 315.372 145.386C315.311 144.83 315.384 144.325 315.59 143.874C315.811 143.434 316.164 143.047 316.651 142.713L316.2 142.078C314.862 142.974 314.268 144.111 314.417 145.49ZM318.43 142.42C318.459 142.685 318.568 142.887 318.757 143.028C318.948 143.181 319.17 143.245 319.422 143.217C319.674 143.19 319.876 143.081 320.03 142.89C320.185 142.712 320.248 142.491 320.22 142.226C320.192 141.974 320.083 141.771 319.892 141.617C319.701 141.464 319.48 141.401 319.228 141.428C318.976 141.455 318.773 141.564 318.62 141.755C318.466 141.946 318.403 142.168 318.43 142.42ZM318.999 147.669C319.026 147.921 319.129 148.124 319.306 148.279C319.497 148.433 319.725 148.495 319.991 148.467C320.242 148.439 320.445 148.33 320.599 148.139C320.752 147.948 320.816 147.727 320.788 147.475C320.761 147.223 320.652 147.02 320.461 146.867C320.27 146.713 320.048 146.65 319.797 146.677C319.545 146.704 319.342 146.814 319.188 147.005C319.035 147.195 318.972 147.417 318.999 147.669Z" fill="black"/>
</svg>
