<svg preserveAspectRatio="none" xmlns="http://www.w3.org/2000/svg" viewBox="0 0 125.01 125.01">
  <path d="M62.47,108c2.15-1.52,4.31-3.71,7.12-3.07,3.02.54,7.27,3.74,10.49,2.22,2.76-1.21,4.12-5.77,5.89-8.06,2.96-4.11,9.66-1.49,12.79-5.35,2.25-2.93.33-7.89,1.58-11.19,1.78-3.57,7.77-4.26,9.22-8.01,1.86-4.47-4.11-8.36-3.92-12.76.64-3.85,5.64-7.58,3.94-11.67-1.59-3.72-6.94-4.34-8.94-7.56-.85-1.57-.51-3.67-.46-5.56.68-7.49-3.3-8.19-9.83-8.87-6.22-.22-5.69-8.8-10.84-10.7-4.43-1.47-9.38,4.64-13.75,1.68-2.47-1.46-5.74-4.9-8.79-4.42-4.7.5-6.37,7.98-11.38,7.96-3.88-.02-9.43-2.26-11.77,1.85-2.1,3.3-.88,8.86-4.94,10.66-2.46,1.22-7.02,1.95-8.54,4.65-2.15,3.84,1.31,8.35.45,12.29-.92,3.59-5.22,5.87-5.89,9.65-.69,4.21,4.77,7.03,6.04,10.43,1.36,3.95-2.96,9.14-.29,12.92,1.54,2.22,5.5,2.94,7.94,3.97,6.22,2.2,1.67,13.11,9.79,13.5,3.01.27,6.32-1.07,9.22.02,5.62,3.14,7.08,11.41,14.75,5.5l.12-.09ZM50.04,62.29c-.21-8.34,9.28-15.11,16.93-11.22,9.17,4.33,10.08,17.91.39,22.22-7.95,3.93-17.3-2-17.32-10.81v-.19Z"/>
</svg>