<svg preserveAspectRatio="none" xmlns="http://www.w3.org/2000/svg" viewBox="0 0 125.01 125.01">
    <path d="M97.5,27.71c-2.49-.07-4.32,2.73-5.85,4.62-2.25,3.22-4.64,1.9-7.77-.62-1.93-1.51-4.11-3.29-6.36-4.67-9.08-5.95-21.05-7.61-30.95-2.74-7.77,3.74-18.3,13.05-20.94,21.53-1.46,5.15,2.54,9.24,7.59,6.03,2.38-1.47,4.12-3.64,5.99-5.8,2.96-3.58,6.33-7.04,10.4-9.35,5.69-3.45,12.88-3.59,18.78-.57,3.93,1.82,8.91,5.84,9.69,7.84,1.06,2.68-3.07,1.99-4.76,2.04-2.62-.11-6.25-.11-8.36,1.39-3.9,2.59-1.62,7,1.98,8.77,4.74,2.48,10.47,2.95,15.67,4.1,5.8,1.08,11.81,2.26,15.35-.14,5.28-4.1,4.3-11.93,4.84-17.98.21-5,.35-13.42-5.18-14.43h-.11Z"/>    <path d="M97.37,72.41c-4.81-2.06-9.24,4.03-12.1,7.34-6.45,8.25-17.38,14.32-27.62,9.63-3.76-1.64-9.33-5.19-10.91-8.62-1.23-4.16,12.68,1.18,15.1-5.29,1.35-7.13-9.76-8.65-15.25-9.79-6.3-.87-13.82-3.86-19.73-.61-5.27,4.04-4.17,12.39-4.81,18.39-.16,3.68-.02,7.55,1.31,10.28,2.15,4.55,6.14,4.2,8.88.37,1.67-1.95,2.91-4.37,5.72-2.92,3.4,1.83,7.26,5.77,10.96,7.73,8.06,4.9,18.23,6.2,27.1,2.82,7.73-2.89,14.26-8.65,19.32-15.25,2.82-3.48,6.72-10.82,2.11-14.02l-.1-.05Z"/>
</svg>