<svg width="100" xmlns="http://www.w3.org/2000/svg" height="100" id="screenshot-d388340b-e548-80a8-8008-3d84d6d2519d" viewBox="0 0 100 100" xmlns:xlink="http://www.w3.org/1999/xlink" fill="none" version="1.1"><g id="shape-d388340b-e548-80a8-8008-3d84d6d2519d"><defs><clipPath id="frame-clip-d388340b-e548-80a8-8008-3d84d6d2519d-render-7" class="frame-clip frame-clip-def"><rect rx="0" ry="0" x="0" y="0" width="100" height="100" transform="matrix(1.000000, 0.000000, 0.000000, 1.000000, 0.000000, 0.000000)"/></clipPath></defs><g class="frame-container-wrapper"><g class="frame-container-blur"><g class="frame-container-shadows"><g clip-path="url(#frame-clip-d388340b-e548-80a8-8008-3d84d6d2519d-render-7)" fill="none"><g class="fills" id="fills-d388340b-e548-80a8-8008-3d84d6d2519d"><rect width="100" height="100" class="frame-background" x="0" transform="matrix(1.000000, 0.000000, 0.000000, 1.000000, 0.000000, 0.000000)" style="fill: rgb(144, 0, 254); fill-opacity: 1;" ry="0" rx="0" y="0"/></g><g class="frame-children"><g id="shape-d388340b-e548-80a8-8008-3d88d68dbb0c" mask="url(#render-8-a)" rx="0" ry="0" style="fill: rgb(0, 0, 0);"><defs><mask y1="30.983378455096727" width="65.36963656060489" maskUnits="userSpaceOnUse" x1="17.5" height="38.03324308980655" class="svg-def" x="17.5" id="render-8-a" style="mask-type: luminance;" data-old-y="30.983378455096727" data-old-width="65.36963656060489" data-old-x="17.5" y="30.983378455096727" x2="82.86963656060489" y2="69.01662154490327" data-old-height="38.03324308980655"><g class="svg-mask-wrapper" transform="matrix(1.188539, 0.000000, 0.000000, 1.188539, 17.500000, 30.983378)"><path fill-rule="evenodd" clip-rule="evenodd" d="M0 31.9998H54.6889V0L0 0V31.9998Z" fill="#fff"/></g></mask></defs><g id="shape-d388340b-e548-80a8-8008-3d88d68dbb0d"><g class="fills" id="fills-d388340b-e548-80a8-8008-3d88d68dbb0d"><path d="M75.8262939453125,46.31671142578125C75.35693359375,47.85467529296875,73.4837646484375,48.811431884765625,71.736572265625,48.811431884765625L40.95703125,48.811431884765625L44.88983154296875,35.855194091796875C45.359375,34.316009521484375,47.23248291015625,33.360443115234375,48.97967529296875,33.360443115234375L79.87213134765625,33.360443115234375L75.8262939453125,46.31671142578125ZM54.9769287109375,64.3040771484375C54.79754638671875,64.89004516601562,54.41485595703125,65.53302001953125,53.91326904296875,65.9906005859375L41.71051025390625,51.188507080078125L59.0216064453125,51.188507080078125L54.9769287109375,64.3040771484375ZM20.1064453125,66.6395263671875L24.03936767578125,53.683258056640625C24.510009765625,52.1441650390625,26.3831787109375,51.188507080078125,28.1302490234375,51.188507080078125L39.1920166015625,51.188507080078125L52.2208251953125,66.74649047851562C51.7845458984375,66.8974609375,51.331787109375,66.6395263671875,50.88604736328125,66.6395263671875L20.1064453125,66.6395263671875ZM48.97967529296875,30.983367919921875C46.3636474609375,30.983367919921875,43.7489013671875,32.706756591796875,43.02386474609375,35.0791015625L38.92578125,48.811431884765625L28.1302490234375,48.811431884765625C25.5142822265625,48.811431884765625,22.8995361328125,50.748779296875,22.17449951171875,53.122283935546875L17.5,69.01663208007812L50.88604736328125,69.01663208007812C53.50201416015625,69.01663208007812,56.1168212890625,67.29324340820312,56.83941650390625,64.92800903320312L61.0576171875,51.188507080078125L71.736572265625,51.188507080078125C74.35137939453125,51.188507080078125,76.9661865234375,49.250030517578125,77.69000244140625,46.88482666015625L82.5,30.983367919921875L48.97967529296875,30.983367919921875Z" fill-rule="evenodd" clip-rule="evenodd" style="fill: rgb(255, 255, 255); fill-opacity: 1;"/></g></g></g></g></g></g></g></g></g></svg>