<?xml version="1.0" encoding="UTF-8" standalone="no"?>

<!DOCTYPE svg PUBLIC "-//W3C//DTD SVG 1.1//EN" "http://www.w3.org/Graphics/SVG/1.1/DTD/svg11.dtd">

<svg width="100%" height="100%" viewBox="0 0 120 121" version="1.1" xmlns="http://www.w3.org/2000/svg" xmlns:xlink="http://www.w3.org/1999/xlink" xml:space="preserve" xmlns:serif="http://www.serif.com/" style="fill-rule:evenodd;clip-rule:evenodd;stroke-linejoin:round;stroke-miterlimit:2;">

    <path d="M51.818,21.713c-0.263,0.171 0.05,0.566 1.327,1.679c6.585,5.737 11.277,12.342 12.91,18.177c1.846,6.592 -0.015,16.609 -5.008,26.953c-1.719,3.563 -2.754,5.43 -7.852,14.177l-1.647,2.826l0.147,-1.929c0.082,-1.062 0.225,-4.594 0.32,-7.862c0.169,-5.848 0.164,-5.944 -0.394,-6.647c-0.682,-0.86 -1.784,-0.936 -2.48,-0.172c-0.415,0.457 -0.52,1.13 -0.671,4.325c-0.349,7.371 -0.546,22.852 -0.303,23.759c0.283,1.057 1.255,1.711 2.202,1.482c0.35,-0.085 1.548,-0.944 2.653,-1.905c3.809,-3.307 6.96,-5.761 10.443,-8.129c4.963,-3.377 6.462,-4.864 6.462,-6.411c0,-0.52 -0.098,-0.552 -1.229,-0.399c-1.777,0.241 -3.366,1.146 -12.359,7.044c-1.793,1.176 -3.298,2.126 -3.366,2.126c-0.227,0 2.048,-4.004 4.675,-8.23c8.065,-12.974 10.926,-18.763 12.798,-25.898c2.068,-7.887 1.995,-13.62 -0.249,-19.263c-2.227,-5.602 -7.929,-11.865 -13.047,-14.329c-2.113,-1.018 -4.81,-1.713 -5.332,-1.374Z" style="fill:#001AFF;fill-rule:nonzero;"/>

</svg>