<svg width="400" height="400" viewBox="0 0 400 400" fill="none" xmlns="http://www.w3.org/2000/svg">
<path d="M296.935 171.514C293.004 171.514 287.141 174.47 287.413 178.394C288.056 187.655 291.643 196.135 282.275 201.618C280.927 202.408 276.518 204.614 276.288 204.614C276.239 204.614 275.959 204.729 275.647 204.877C269.035 207.889 258.701 211.704 249.638 212.066C243.799 212.313 237.055 211.523 232.993 210.124C227.631 208.28 222.236 203.474 217.696 196.428C214.62 191.655 213.018 188.746 211.637 185.059C210.859 182.985 208.19 177.53 206.495 180.034C206.363 180.248 205.179 183.112 203.863 186.387C201.314 192.774 201.149 193.07 198.879 195.507C184.604 210.758 171.366 196.865 160.667 186.157C156.703 182.223 154.696 180.396 150.962 177.35C147.837 174.815 142.804 172.478 138.823 171.704C134.843 170.931 129.907 172.636 126.668 174.507C121.746 177.35 119.739 181.766 115.399 181.183C106.69 180.012 93.4046 191.466 103.807 193.238C112.194 196.09 108.699 209.093 108.97 218.7C109.128 224.043 113.679 228.519 119.02 228.472C121.197 228.452 126.09 228.433 128.188 228.418C131.036 228.397 132.968 224.452 131.936 221.794C128.1 211.91 119.447 192.248 130.649 189.556C143.807 186.378 146.48 196.599 154.104 205.004C168.458 220.799 189.418 225.765 200.656 203.21C203.08 198.417 203.643 204.358 205.541 207.638C210.426 216.132 214.505 220.51 220.196 223.375C237.265 232.021 262.92 229.099 279.163 219.111C301.81 204.698 302.769 171.514 297.058 171.514C297.017 171.514 296.976 171.514 296.935 171.514Z" fill="black"/>
<path d="M251.024 176.581C249.165 177.485 247.648 184.027 247.648 186.215C247.648 190.616 253.622 191.832 256.995 191.832C261.286 191.832 261.878 186.041 261.818 182.676C261.72 178.123 255.271 174.402 251.024 176.581Z" fill="black"/>
</svg>
